<svg id="Layer_1" data-name="Layer 1" xmlns="http://www.w3.org/2000/svg" viewBox="0 0 630 354"><defs><style>.cls-1{fill:#1d70b8;}.cls-2,.cls-3{fill:none;stroke:#1d70b8;stroke-width:6px;}.cls-2{stroke-miterlimit:10;}.cls-3{stroke-linejoin:round;}</style></defs><path class="cls-1" d="M365.94,16.5A7.07,7.07,0,0,1,373,23.56V69.44a7.07,7.07,0,0,1-7.06,7.06H264.06A7.07,7.07,0,0,1,257,69.44V23.56a7.07,7.07,0,0,1,7.06-7.06H365.94m0-6H264.06A13.06,13.06,0,0,0,251,23.56V69.44A13.06,13.06,0,0,0,264.06,82.5H365.94A13.06,13.06,0,0,0,379,69.44V23.56A13.06,13.06,0,0,0,365.94,10.5Z"/><path class="cls-1" d="M193.2,136.5a3.8,3.8,0,0,1,3.8,3.8v34.4a3.8,3.8,0,0,1-3.8,3.8H116.8a3.8,3.8,0,0,1-3.8-3.8V140.3a3.8,3.8,0,0,1,3.8-3.8h76.4m0-6H116.8a9.8,9.8,0,0,0-9.8,9.8v34.4a9.8,9.8,0,0,0,9.8,9.8h76.4a9.8,9.8,0,0,0,9.8-9.8V140.3a9.8,9.8,0,0,0-9.8-9.8Z"/><path class="cls-1" d="M53,322.5v15H17v-15H53m1.1-6H15.9a4.9,4.9,0,0,0-4.9,4.9v17.2a4.9,4.9,0,0,0,4.9,4.9H54.1a4.9,4.9,0,0,0,4.9-4.9V321.4a4.9,4.9,0,0,0-4.9-4.9Z"/><path class="cls-1" d="M133,322.5v15H97v-15h36m1.1-6H95.9a4.9,4.9,0,0,0-4.9,4.9v17.2a4.9,4.9,0,0,0,4.9,4.9h38.2a4.9,4.9,0,0,0,4.9-4.9V321.4a4.9,4.9,0,0,0-4.9-4.9Z"/><path class="cls-1" d="M513.2,136.5a3.8,3.8,0,0,1,3.8,3.8v34.4a3.8,3.8,0,0,1-3.8,3.8H436.8a3.8,3.8,0,0,1-3.8-3.8V140.3a3.8,3.8,0,0,1,3.8-3.8h76.4m0-6H436.8a9.8,9.8,0,0,0-9.8,9.8v34.4a9.8,9.8,0,0,0,9.8,9.8h76.4a9.8,9.8,0,0,0,9.8-9.8V140.3a9.8,9.8,0,0,0-9.8-9.8Z"/><path class="cls-1" d="M100.47,238.5a.53.53,0,0,1,.53.53V262a.53.53,0,0,1-.53.53H49.53A.53.53,0,0,1,49,262V239a.53.53,0,0,1,.53-.53h50.94m0-6H49.53A6.53,6.53,0,0,0,43,239V262a6.53,6.53,0,0,0,6.53,6.53h50.94A6.53,6.53,0,0,0,107,262V239a6.53,6.53,0,0,0-6.53-6.53Z"/><path class="cls-1" d="M420.47,238.5a.53.53,0,0,1,.53.53V262a.53.53,0,0,1-.53.53H369.53A.53.53,0,0,1,369,262V239a.53.53,0,0,1,.53-.53h50.94m0-6H369.53A6.53,6.53,0,0,0,363,239V262a6.53,6.53,0,0,0,6.53,6.53h50.94A6.53,6.53,0,0,0,427,262V239a6.53,6.53,0,0,0-6.53-6.53Z"/><path class="cls-1" d="M500.47,238.5a.53.53,0,0,1,.53.53V262a.53.53,0,0,1-.53.53H449.53A.53.53,0,0,1,449,262V239a.53.53,0,0,1,.53-.53h50.94m0-6H449.53A6.53,6.53,0,0,0,443,239V262a6.53,6.53,0,0,0,6.53,6.53h50.94A6.53,6.53,0,0,0,507,262V239a6.53,6.53,0,0,0-6.53-6.53Z"/><path class="cls-1" d="M580.47,238.5a.53.53,0,0,1,.53.53V262a.53.53,0,0,1-.53.53H529.53A.53.53,0,0,1,529,262V239a.53.53,0,0,1,.53-.53h50.94m0-6H529.53A6.53,6.53,0,0,0,523,239V262a6.53,6.53,0,0,0,6.53,6.53h50.94A6.53,6.53,0,0,0,587,262V239a6.53,6.53,0,0,0-6.53-6.53Z"/><path class="cls-1" d="M260.47,238.5a.53.53,0,0,1,.53.53V262a.53.53,0,0,1-.53.53H209.53A.53.53,0,0,1,209,262V239a.53.53,0,0,1,.53-.53h50.94m0-6H209.53A6.53,6.53,0,0,0,203,239V262a6.53,6.53,0,0,0,6.53,6.53h50.94A6.53,6.53,0,0,0,267,262V239a6.53,6.53,0,0,0-6.53-6.53Z"/><line class="cls-2" x1="315" y1="82.5" x2="315" y2="106.5"/><polyline class="cls-3" points="155 130.5 155 106.5 475 106.5 475 130.5"/><line class="cls-2" x1="155" y1="184.5" x2="155" y2="208.5"/><polyline class="cls-3" points="75 232.5 75 208.5 235 208.5 235 232.5"/><line class="cls-2" x1="75" y1="268.5" x2="75" y2="292.5"/><polyline class="cls-3" points="35 316.5 35 292.5 115 292.5 115 316.5"/><path class="cls-1" d="M453,322.5v15H417v-15h36m1.1-6H415.9a4.9,4.9,0,0,0-4.9,4.9v17.2a4.9,4.9,0,0,0,4.9,4.9h38.2a4.9,4.9,0,0,0,4.9-4.9V321.4a4.9,4.9,0,0,0-4.9-4.9Z"/><line class="cls-2" x1="395" y1="268.5" x2="395" y2="292.5"/><polyline class="cls-3" points="435 316.5 435 292.5 355 292.5 355 330 139 330"/><path class="cls-1" d="M613,322.5v15H577v-15h36m1.1-6H575.9a4.9,4.9,0,0,0-4.9,4.9v17.2a4.9,4.9,0,0,0,4.9,4.9h38.2a4.9,4.9,0,0,0,4.9-4.9V321.4a4.9,4.9,0,0,0-4.9-4.9Z"/><line class="cls-2" x1="555" y1="268.5" x2="555" y2="292.5"/><polyline class="cls-3" points="595 316.5 595 292.5 515 292.5 515 330 459 330"/><line class="cls-2" x1="475" y1="184.5" x2="475" y2="232.5"/><polyline class="cls-3" points="395 232.5 395 208.5 555 208.5 555 232.5"/></svg>