<svg xmlns="http://www.w3.org/2000/svg" viewBox="0 0 48 48"><g id="Layer_2" data-name="Layer 2"><g id="Layer_1-2" data-name="Layer 1"><path d="M24,0A24,24,0,1,0,48,24,24,24,0,0,0,24,0Zm0,7.38a9.42,9.42,0,0,1,9.3,9.52,9.69,9.69,0,0,1-.52,3.16l-1.21,3.52a8,8,0,0,1-15.13,0l-1.22-3.55a9.69,9.69,0,0,1-.52-3.16A9.42,9.42,0,0,1,24,7.38ZM39.5,39l-.26.28a21.55,21.55,0,0,1-30.35.12c-.14-.13-.26-.28-.39-.41v-.57c0-3.53,3.29-6.61,8.13-8.18.49-.16,1-.3,1.51-.43a1.53,1.53,0,0,1,1.79.9,4.37,4.37,0,0,0,8.14,0,1.53,1.53,0,0,1,1.79-.9c.52.13,1,.27,1.51.43,4.84,1.57,8.13,4.65,8.13,8.18Z"/></g></g></svg>